<svg xmlns="http://www.w3.org/2000/svg" width="24" height="17" viewBox="0 0 24 17">
    <g fill="none" fill-rule="evenodd">
        <g fill="#146EB4" fill-rule="nonzero" stroke="#146EB4" stroke-width=".3">
            <g>
                <g>
                    <g>
                        <path d="M9.188.437c.312.306.341.792.084 1.13l-.07.082L3.46 7.521h19.345c.555 0 1.005.384 1.005.858 0 .44-.388.801-.888.85l-.117.007-19.345-.001 5.74 5.873c.331.338.325.881-.013 1.212-.313.306-.8.324-1.132.059l-.08-.073L.81 8.978C.676 8.84.598 8.67.574 8.495L.57 8.459c-.002-.02-.004-.04-.004-.06v-.047c0-.023.002-.045.005-.068l-.005.095c0-.038.003-.075.008-.11.018-.146.073-.287.167-.41l.069-.08L7.976.451c.33-.339.873-.345 1.212-.014z" transform="translate(-316 -408) translate(162 130) translate(0 274) rotate(-180 89 10.5)"/>
                    </g>
                </g>
            </g>
        </g>
    </g>
</svg>
