<svg xmlns="http://www.w3.org/2000/svg" width="24" height="24" viewBox="0 0 24 24">
    <g fill="none" fill-rule="evenodd">
        <g fill="#B3B3B3" fill-rule="nonzero">
            <g>
                <g>
                    <g>
                        <path d="M17.53 2c.247 0 .479.116.627.313l2.753 3.672c.023.03.045.06.064.093l.025.049.02.044.014.036.02.063c.016.064.025.132.025.2v12.903c0 1.451-1.176 2.627-2.626 2.627H5.548c-1.45 0-2.626-1.176-2.626-2.627V6.47c0-.104.02-.206.06-.3L3 6.125c.021-.044.047-.086.077-.126l-.051.078.003-.006L3.078 6l2.765-3.687c.148-.197.38-.313.627-.313zm1.98 5.253H4.489v12.12c0 .508.357.932.833 1.036l.112.018.115.006h12.904c.585 0 1.06-.474 1.06-1.06l-.001-12.12zm-3.823 2.12c.432 0 .783.351.783.784 0 2.468-2.001 4.47-4.47 4.47s-4.47-2.002-4.47-4.47c0-.433.35-.784.783-.784.433 0 .784.351.784.784 0 1.603 1.3 2.903 2.903 2.903s2.903-1.3 2.903-2.903c0-.433.351-.784.784-.784zm1.451-5.806H6.861L5.27 5.686h13.458l-1.59-2.12z" transform="translate(-150 -2633) translate(0 2294) translate(0 319) translate(150 20)"/>
                    </g>
                </g>
            </g>
        </g>
    </g>
</svg>
