<svg xmlns="http://www.w3.org/2000/svg" width="24" height="24" viewBox="0 0 24 24">
    <g fill="none" fill-rule="evenodd">
        <g fill="#B3B3B3" fill-rule="nonzero">
            <g>
                <g>
                    <g>
                        <path d="M3.297 17.585c.805 0 1.458.652 1.458 1.457S4.102 20.5 3.297 20.5c-.805 0-1.458-.653-1.458-1.458 0-.805.653-1.457 1.458-1.457zm17.831.424c.57 0 1.033.463 1.033 1.033 0 .533-.403.971-.92 1.027l-.113.006H8.921c-.57 0-1.033-.462-1.033-1.033 0-.532.403-.97.92-1.027l.113-.006h12.207zM3.297 10.542c.805 0 1.458.653 1.458 1.458 0 .805-.653 1.458-1.458 1.458-.805 0-1.458-.653-1.458-1.458 0-.805.653-1.458 1.458-1.458zm17.831.425c.57 0 1.033.463 1.033 1.033 0 .532-.403.97-.92 1.027l-.113.006H8.921c-.57 0-1.033-.463-1.033-1.033 0-.532.403-.97.92-1.027l.113-.006h12.207zM3.297 3.5c.805 0 1.458.653 1.458 1.458 0 .805-.653 1.457-1.458 1.457-.805 0-1.458-.652-1.458-1.457S2.492 3.5 3.297 3.5zm17.831.425c.57 0 1.033.462 1.033 1.033 0 .532-.403.97-.92 1.027l-.113.006H8.921c-.57 0-1.033-.463-1.033-1.033 0-.533.403-.971.92-1.027l.113-.006h12.207z" transform="translate(-251 -2633) translate(0 2294) translate(0 319) translate(251 20)"/>
                    </g>
                </g>
            </g>
        </g>
    </g>
</svg>
