<svg xmlns="http://www.w3.org/2000/svg" width="24" height="24" viewBox="0 0 24 24">
    <g fill="none" fill-rule="evenodd">
        <g fill="#146EB4">
            <g>
                <g>
                    <g>
                        <path d="M12.92 2.716l7.5 5.834c.366.284.58.72.58 1.184V20c0 1.105-.895 2-2 2h-3.46l.005-.09v-7.274l-.004-.155C15.461 13.098 14.313 12 12.909 12h-1.818l-.155.004c-1.384.08-2.481 1.228-2.481 2.632v7.273l.004.09L5 22c-1.105 0-2-.895-2-2V9.734c0-.463.214-.9.58-1.184l7.5-5.834c.54-.421 1.3-.421 1.84 0zm-.01 10.92l.108.006c.501.055.891.479.891.994v7.273l.005.09h-3.829l.006-.09v-7.273l.006-.109c.054-.5.478-.89.994-.89h1.818z" transform="translate(-32 -2633) translate(0 2294) translate(0 319) translate(32 20)"/>
                    </g>
                </g>
            </g>
        </g>
    </g>
</svg>
