<svg xmlns="http://www.w3.org/2000/svg" width="150" height="44" fill="none" viewBox="0 0 150 44">
    <path fill="#fff" d="M68.163 10.817V30.83c.052.366-.208.68-.572.732h-2.652c-.364.052-.676-.21-.728-.575v-1.202c-1.092 1.41-2.703 2.247-4.94 2.247-4.055 0-7.434-3.501-7.434-8.1 0-4.598 3.38-8.1 7.435-8.1 2.236 0 3.847.837 4.94 2.248v-7.264c-.053-.366.207-.68.571-.732h2.652c.364-.052.676.21.728.575v.157zM64.21 23.88c.104-2.352-1.768-4.337-4.107-4.39-2.34-.104-4.316 1.777-4.368 4.129v.313c-.104 2.352 1.768 4.337 4.108 4.39 2.34.104 4.315-1.777 4.367-4.128v-.314zM82.46 16.2c.364-.053.676.209.728.574v14.057c.052.366-.208.68-.572.732H79.965c-.364.052-.676-.21-.728-.575v-.993c-.832 1.307-2.288 1.986-4.16 1.986-2.86 0-4.99-2.195-4.99-5.957V16.93c-.053-.366.207-.68.571-.732h2.652c.364-.052.676.21.728.575v8.937c0 1.776 1.04 2.612 2.443 2.612 1.56 0 2.756-.888 2.756-3.24v-8.152c-.052-.366.208-.68.572-.732H82.46zM98.266 31.563h-2.911c-.364 0-.676-.157-.884-.418l-4.991-6.48v6.166c.051.366-.208.68-.572.732h-2.652c-.364.052-.676-.21-.728-.575V10.817c-.052-.366.208-.68.572-.732h2.652c.364-.052.676.21.728.575v12.333l4.73-6.323c.209-.314.52-.47.885-.47h2.911c.572 0 .78.417.416.888l-5.147 6.74 5.407 6.899c.416.47.208.836-.416.836zM106.377 15.781c3.379 0 6.239 2.038 6.239 6.01v9.04c.052.366-.208.68-.572.732h-2.548c-.363.052-.675-.21-.727-.575v-.732c-.884 1.098-2.184 1.725-4.16 1.725-2.703 0-5.147-1.62-5.147-4.808 0-3.188 2.444-4.807 5.147-4.807 1.508-.105 3.016.418 4.16 1.358v-1.62c0-1.829-.936-2.56-2.392-2.56-1.144 0-2.028.47-2.288 1.306-.156.418-.312.627-.728.627h-2.443c-.364.052-.676-.209-.728-.575v-.209c.416-3.135 3.119-4.86 6.187-4.912zm2.392 11.392c0-1.202-1.092-1.933-2.808-1.933-1.716 0-2.548.784-2.548 1.933 0 1.15.832 1.934 2.548 1.934 1.716 0 2.808-.836 2.808-1.934zM121.351 15.781c3.38 0 6.239 2.038 6.239 6.01v9.04c.052.366-.208.68-.572.732h-2.547c-.364.052-.676-.21-.728-.575v-.732c-.884 1.098-2.184 1.725-4.16 1.725-2.703 0-5.147-1.62-5.147-4.808 0-3.188 2.444-4.807 5.147-4.807 1.508-.105 3.016.418 4.16 1.358v-1.62c0-1.829-.936-2.56-2.392-2.56-1.144 0-2.028.47-2.288 1.306-.156.418-.312.627-.728.627h-2.443c-.364.052-.676-.209-.728-.575v-.209c.416-3.135 3.067-4.86 6.187-4.912zm2.34 11.392c0-1.202-1.092-1.933-2.808-1.933-1.716 0-2.548.784-2.548 1.933 0 1.15.832 1.934 2.548 1.934 1.716 0 2.808-.836 2.808-1.934zM137.677 15.781c2.859 0 4.939 2.195 4.939 5.957v9.093c.052.366-.208.68-.572.732H139.393c-.364.052-.676-.21-.728-.575v-8.936c0-1.777-1.04-2.613-2.444-2.613-1.56 0-2.756.889-2.756 3.24v8.152c.052.366-.208.68-.572.732H130.242c-.364.052-.676-.21-.728-.575V16.93c-.052-.366.208-.68.572-.732H132.737c.364-.052.676.21.728.575v.993c.884-1.254 2.288-1.933 4.212-1.986z"/>
    <path fill="#fff" d="M21.889 44c12.089 0 21.889-9.85 21.889-22s-9.8-22-21.89-22C9.8 0 0 9.85 0 22s9.8 22 21.889 22z" opacity=".3"/>
    <path fill="#fff" d="M30.52 10.451H13.258c-1.664 0-3.068 1.359-3.068 3.083v16.984c0 1.672 1.352 3.03 3.068 3.03H30.52c1.663 0 3.015-1.358 3.015-3.03V13.482c0-1.672-1.352-3.03-3.015-3.03zm-8.631 13.535c-4.264 0-7.8-3.293-8.163-7.578-.052-.94.624-1.724 1.508-1.776.884-.053 1.716.627 1.768 1.515.207 2.665 2.495 4.703 5.199 4.494 2.391-.157 4.315-2.09 4.471-4.494.052-.94.832-1.62 1.768-1.568.468.053.884.262 1.196.575.312.314.416.784.416 1.202-.364 4.337-3.9 7.63-8.163 7.63zM146.203 8.57c-2.132 0-3.795 1.725-3.795 3.815s1.715 3.815 3.795 3.815 3.796-1.725 3.796-3.815c.052-2.143-1.664-3.815-3.796-3.815zm0 .575c1.768 0 3.224 1.463 3.224 3.24 0 1.777-1.456 3.24-3.224 3.24-1.768 0-3.223-1.463-3.223-3.24 0-1.777 1.455-3.24 3.223-3.24zm-1.144 1.463v3.554h.572v-1.307h.78l.832 1.307h.572l-.832-1.359c.104 0 .156-.052.26-.052.156-.052.312-.157.416-.261.104-.105.156-.21.208-.366.052-.105.052-.261.052-.366 0-.105 0-.261-.052-.366-.052-.157-.104-.261-.208-.366-.104-.104-.26-.209-.416-.26-.208-.105-.468-.158-.676-.105l-1.508-.053zm.572.47h1.092c.104 0 .208.053.312.105.104.052.156.105.208.157.052.104.104.209.104.313 0 .105 0 .21-.104.314-.052.104-.104.157-.208.209l-.312.104c-.104 0-.208.053-.312 0h-.78V11.08z"/>
</svg>
