<svg xmlns="http://www.w3.org/2000/svg" width="14" height="14" viewBox="0 0 14 14">
    <g fill="none" fill-rule="evenodd">
        <g fill="#17B31B" fill-rule="nonzero">
            <g>
                <g>
                    <g>
                        <path d="M7 .095C3.182.095.095 3.182.095 7S3.182 13.905 7 13.905 13.905 10.818 13.905 7 10.818.095 7 .095zm3.34 5.473L6.253 9.641c-.127.127-.286.19-.445.19-.16 0-.334-.063-.446-.19l-2.02-2.005c-.255-.254-.255-.652 0-.906.254-.255.652-.255.907 0l1.559 1.559L9.434 4.66c.255-.254.652-.254.907 0 .239.255.239.669 0 .907z" transform="translate(-82 -165) translate(82 136) translate(0 28) translate(0 1)"/>
                    </g>
                </g>
            </g>
        </g>
    </g>
</svg>
