<svg xmlns="http://www.w3.org/2000/svg" width="21" height="21" viewBox="0 0 21 21">
    <g fill="none" fill-rule="evenodd">
        <g fill-rule="nonzero">
            <g>
                <g>
                    <g>
                        <path fill="#FFF" d="M.427 19.574l1.352-4.916C.945 13.218.507 11.586.507 9.914.51 4.682 4.784.426 10.036.426c2.548 0 4.94.989 6.74 2.782 1.799 1.794 2.789 4.178 2.788 6.713-.002 5.232-4.277 9.49-9.528 9.49h-.004c-1.595-.002-3.162-.4-4.554-1.156l-5.05 1.32zm5.285-3.037l.29.171c1.215.719 2.61 1.099 4.03 1.1h.004c4.365 0 7.917-3.539 7.92-7.887 0-2.108-.823-4.09-2.318-5.58-1.496-1.49-3.484-2.312-5.6-2.313-4.368 0-7.92 3.538-7.922 7.886 0 1.49.418 2.942 1.21 4.197l.19.299-.801 2.91 2.997-.783z" transform="translate(-122 -2563) translate(0 2294) translate(110 263) translate(12 6)"/>
                        <path fill="#49C759" d="M.759 19.243l1.305-4.747C1.258 13.107.835 11.531.836 9.916.838 4.867 4.964.758 10.034.758c2.46.001 4.77.955 6.507 2.687 1.737 1.731 2.692 4.033 2.692 6.48-.003 5.05-4.13 9.16-9.199 9.16h-.004c-1.539 0-3.052-.385-4.395-1.114L.759 19.243z" transform="translate(-122 -2563) translate(0 2294) translate(110 263) translate(12 6)"/>
                        <g fill="#FFF">
                            <path d="M.035 19.184l1.352-4.917C.553 12.827.114 11.196.115 9.523.117 4.291 4.391.035 9.644.035c2.548.001 4.94.99 6.74 2.783 1.798 1.793 2.789 4.177 2.788 6.713-.002 5.231-4.277 9.488-9.528 9.488h-.005c-1.594 0-3.161-.399-4.553-1.155l-5.05 1.32zm5.285-3.037l.29.17c1.215.72 2.61 1.1 4.03 1.1h.004c4.364 0 7.917-3.538 7.919-7.887 0-2.107-.822-4.089-2.317-5.58-1.496-1.49-3.484-2.312-5.6-2.312-4.368 0-7.92 3.537-7.922 7.886 0 1.49.418 2.941 1.21 4.197l.189.298-.8 2.91 2.997-.782z" transform="translate(-122 -2563) translate(0 2294) translate(110 263) translate(12 6) translate(.392 .39)"/>
                            <path d="M7.262 5.556c-.178-.394-.366-.402-.536-.41-.139-.005-.297-.005-.456-.005-.159 0-.417.06-.635.297-.218.237-.833.81-.833 1.978 0 1.167.853 2.294.972 2.453.12.158 1.647 2.629 4.067 3.58 2.011.79 2.42.632 2.857.593.436-.04 1.408-.574 1.607-1.128.198-.553.198-1.028.139-1.127-.06-.099-.219-.158-.457-.277-.238-.118-1.408-.692-1.626-.771-.219-.08-.377-.119-.536.119-.159.237-.615.77-.754.929-.139.158-.278.178-.516.06-.238-.12-1.005-.37-1.914-1.178-.708-.628-1.186-1.404-1.325-1.642-.139-.237-.002-.354.105-.484.192-.233.515-.653.595-.81.08-.159.04-.297-.02-.416s-.522-1.291-.734-1.76z" transform="translate(-122 -2563) translate(0 2294) translate(110 263) translate(12 6) translate(.392 .39)"/>
                        </g>
                    </g>
                </g>
            </g>
        </g>
    </g>
</svg>
